<svg xmlns="http://www.w3.org/2000/svg" width="42" height="52" fill="none" viewBox="0 0 42 52"><g filter="url(#filter0_d)"><path fill="#fff" d="M14.5938 32.4102C10.7656 30.1953 8.1875 26.0547 8.1875 21.3125C8.1875 14.2383 13.9258 8.5 21 8.5C28.0742 8.5 33.8125 14.2383 33.8125 21.3125C33.8125 26.0547 31.2344 30.1953 27.4062 32.4102V36.9375C27.4062 37.6289 26.8477 38.1875 26.1562 38.1875H15.8438C15.1523 38.1875 14.5938 37.6289 14.5938 36.9375V32.4102ZM16.3125 40.6875H25.6875C25.8594 40.6875 26 40.8281 26 41V42.25C26 42.9414 25.4414 43.5 24.75 43.5H17.25C16.5586 43.5 16 42.9414 16 42.25V41C16 40.8281 16.1406 40.6875 16.3125 40.6875Z"/></g><defs><filter id="filter0_d" width="56" height="56" x="-7" y="-2" color-interpolation-filters="sRGB" filterUnits="userSpaceOnUse"><feFlood flood-opacity="0" result="BackgroundImageFix"/><feColorMatrix in="SourceAlpha" type="matrix" values="0 0 0 0 0 0 0 0 0 0 0 0 0 0 0 0 0 0 127 0"/><feOffset/><feGaussianBlur stdDeviation="4"/><feColorMatrix type="matrix" values="0 0 0 0 1 0 0 0 0 1 0 0 0 0 1 0 0 0 0.25 0"/><feBlend in2="BackgroundImageFix" mode="normal" result="effect1_dropShadow"/><feBlend in="SourceGraphic" in2="effect1_dropShadow" mode="normal" result="shape"/></filter></defs></svg>